<?xml version="1.0" encoding="utf-8"?>
<!-- Generator: Adobe Illustrator 27.0.0, SVG Export Plug-In . SVG Version: 6.00 Build 0)  -->
<svg version="1.1" id="Layer_1" xmlns="http://www.w3.org/2000/svg" xmlns:xlink="http://www.w3.org/1999/xlink" x="0px" y="0px"
	 viewBox="0 0 612 792" style="enable-background:new 0 0 612 792;" xml:space="preserve">
<style type="text/css">
	.st0{stroke:#857D7D;stroke-width:10;stroke-miterlimit:10;}
	.st1{fill:#6D6E71;stroke:#000000;stroke-width:3;stroke-miterlimit:10;}
	.st2{fill:#939598;stroke:#000000;stroke-width:3;stroke-miterlimit:10;}
</style>
<circle id="circle" class="st0" cx="307.32" cy="390.31" r="282.56"/>
<g>
	<path class="st1" d="M255,468.49h-4.41L150.27,268.75l-10.84,124.4c-0.61,6.86-0.92,13.35-0.92,19.48
		c0,17.89,3.64,31.67,10.93,41.34c7.29,9.68,19.08,16.35,35.37,20.03v5.7H84.49V474c8.94-3.18,16.84-7.99,23.7-14.42
		c6.86-6.43,12.13-13.93,15.8-22.51c3.92-9.43,6.8-24.44,8.64-45.02l11.58-132.48c-4.66-8.7-9.99-14.94-15.99-18.74
		c-6-3.8-13.6-5.88-22.78-6.25v-5.7h88.93c-0.49,1.23-0.8,2.02-0.92,2.39c-2.33,5.64-3.49,10.05-3.49,13.23
		c0,5.88,3.12,15.07,9.37,27.56l71.11,141.12l58.8-137.26c4.65-11.02,6.98-19.41,6.98-25.17c0-5.88-2.45-13.17-7.35-21.87h88.38v5.7
		c-12.25,1.72-21.13,5.3-26.64,10.75c-5.51,5.45-8.27,13.44-8.27,23.98c0,3.31,0.18,6.43,0.55,9.37l0.55,4.59l15.43,136.34
		c0.24,1.84,0.46,3.43,0.64,4.78c0.18,1.35,0.76,5.21,1.75,11.58c1.84,11.88,5.48,20.7,10.93,26.46
		c5.45,5.76,13.87,9.62,25.26,11.58v5.7H320.6V474c12.86-3.18,22.33-7.38,28.39-12.59c6.06-5.21,9.09-11.79,9.09-19.75
		c0-3.06-0.43-8.08-1.29-15.07l-18.01-156.92L255,468.49z M147.33,470.32c-5.88-6.37-9.89-11.6-12.04-15.71
		c-2.14-4.1-3.77-9.34-4.87-15.71c-2.94,7.35-6.19,13.23-9.74,17.64c-3.55,4.41-8.64,9-15.25,13.78H147.33z M252.25,457.83
		l10.11-23.89l-84.52-168.31c-4.17-8.7-6.25-15-6.25-18.93c0-3.8,0.98-7.41,2.94-10.84h-42.26c6.86,4.9,12,10.11,15.43,15.62
		c4.65,6.98,8.64,13.9,11.94,20.76L252.25,457.83z M346.51,470.32h56.41l-9.56-7.72c-4.17-3.31-6.92-10.47-8.27-21.5l-20.21-175.48
		c-0.25-3.18-0.37-5.39-0.37-6.61c0-2.82,0.61-5.24,1.84-7.26c1.22-2.02,3.74-4.56,7.53-7.63l10.47-8.27h-42.63l23.15,202.67
		l0.74,4.04c0.24,2.94,0.37,5.15,0.37,6.62c0,3.06-0.58,5.45-1.75,7.17c-1.17,1.72-3.77,4.04-7.81,6.98L346.51,470.32z"/>
</g>
<g>
	<path class="st2" d="M372.82,562.34h-3.3l-74.98-149.28l-8.1,92.98c-0.46,5.13-0.69,9.98-0.69,14.56c0,13.37,2.72,23.67,8.17,30.9
		c5.45,7.23,14.26,12.22,26.44,14.97v4.26h-74.98v-4.26c6.68-2.38,12.59-5.97,17.72-10.78c5.13-4.81,9.06-10.41,11.81-16.82
		c2.93-7.05,5.08-18.27,6.45-33.65l8.65-99.02c-3.48-6.5-7.46-11.17-11.95-14.01c-4.49-2.84-10.16-4.4-17.03-4.67v-4.26h66.47
		c-0.37,0.92-0.6,1.51-0.69,1.79c-1.74,4.21-2.61,7.51-2.61,9.89c0,4.39,2.33,11.26,7,20.6l53.15,105.47l43.95-102.59
		c3.48-8.24,5.22-14.51,5.22-18.81c0-4.4-1.83-9.84-5.49-16.34h66.06v4.26c-9.16,1.28-15.79,3.96-19.91,8.03
		c-4.12,4.08-6.18,10.05-6.18,17.92c0,2.47,0.14,4.81,0.41,7l0.41,3.43l11.54,101.9c0.18,1.37,0.34,2.56,0.48,3.57
		c0.14,1.01,0.57,3.89,1.3,8.65c1.37,8.88,4.1,15.47,8.17,19.78c4.07,4.3,10.37,7.19,18.88,8.65v4.26h-87.34v-4.26
		c9.61-2.38,16.69-5.51,21.22-9.41c4.53-3.89,6.8-8.81,6.8-14.76c0-2.29-0.32-6.04-0.96-11.26l-13.46-117.28L372.82,562.34z
		 M292.34,563.72c-4.4-4.76-7.39-8.67-9-11.74c-1.6-3.07-2.82-6.98-3.64-11.74c-2.2,5.49-4.62,9.89-7.28,13.18
		c-2.66,3.3-6.45,6.73-11.4,10.3H292.34z M370.76,554.38l7.55-17.85l-63.17-125.8c-3.11-6.5-4.67-11.21-4.67-14.15
		c0-2.84,0.73-5.54,2.2-8.1h-31.59c5.13,3.66,8.97,7.55,11.54,11.67c3.48,5.22,6.45,10.39,8.93,15.52L370.76,554.38z M441.21,563.72
		h42.16l-7.14-5.77c-3.11-2.47-5.17-7.83-6.18-16.07l-15.11-131.15c-0.18-2.38-0.28-4.03-0.28-4.94c0-2.11,0.46-3.91,1.37-5.42
		c0.91-1.51,2.79-3.41,5.63-5.7l7.83-6.18h-31.86l17.3,151.48l0.55,3.02c0.18,2.2,0.28,3.84,0.28,4.94c0,2.29-0.44,4.08-1.3,5.36
		c-0.87,1.28-2.82,3.02-5.84,5.22L441.21,563.72z"/>
</g>
</svg>
